<?xml version="1.0" encoding="utf-8" standalone="yes"?><!-- Generator: Adobe Illustrator 26.0.3, SVG Export Plug-In . SVG Version: 6.00 Build 0)  --><svg xmlns="http://www.w3.org/2000/svg" xmlns:xlink="http://www.w3.org/1999/xlink" version="1.2" baseProfile="tiny-ps" viewBox="0 0 200 200" xml:space="preserve"><title>Rollie Nation</title><path fill="#000001" d="M90.1,58.6l11.4-2v74.6l-11.4,2V58.6z M82.7,97.8c3.4,5.8,4.5,12.6,3.3,19.1c-2.2,12.5-12.2,21.9-23.2,21.9  c-1.1,0-2.3-0.1-3.4-0.3c-12.2-2.2-20.1-15.4-17.6-29.4c2.2-12.5,12.2-21.9,23.2-21.9c1.2,0,2.3,0.1,3.4,0.3  C74.2,88.6,79.3,92.2,82.7,97.8L82.7,97.8z M66.1,100c-0.6-0.1-1.1-0.1-1.7-0.1c-5.5,0-10.5,4.8-11.6,11.2c-0.6,3.4,0,6.8,1.6,9.8  c1.5,2.7,4.1,4.6,7.1,5.2c0.6,0.1,1.1,0.1,1.7,0.1c5.5,0,10.5-4.8,11.6-11.2C76.1,107.9,72.1,101.1,66.1,100z M107.4,130.1l11.4-2  V53.6l-11.4,2V130.1z M124.7,77.6v49.5l11.4-2V75.6L124.7,77.6z M124.7,71.6l11.4-2V58.2l-11.4,2V71.6z M19.3,96.1  c-2.4,0.4-4.2,2.5-4.2,5v45.3l11.4-2v-38L40,104V92.5l-13.6,2.4L19.3,96.1z M172.3,101.8l12.4-2.2c-0.2,1.2-0.5,2.3-0.8,3.4  c-2.6,8.7-9.3,15.4-17,17.6h-0.1c-0.3,0.1-0.5,0.2-0.8,0.2h-0.1c-0.3,0.1-0.5,0.1-0.8,0.2h-0.1c-0.3,0.1-0.5,0.1-0.8,0.1H164  c-0.9,0.1-1.8,0.2-2.7,0.2c-1.2,0-2.3-0.1-3.4-0.3c-12.2-2.2-20.1-15.4-17.7-29.4c2.2-12.5,12.2-21.9,23.2-21.9  c1.2,0,2.3,0.1,3.4,0.3c0.9,0.2,1.7,0.4,2.6,0.6h0.1c0.4,0.1,0.8,0.3,1.2,0.4h0c4.8,1.9,8.8,5.6,11.4,10.8c0.5,1,0.9,2,1.2,3  c0.3,0.9,0.7,2.5,0.8,3.2c0,0.2,0.3,1.6,0.5,3.6c0.1,1.1,0.3,2.6,0.4,3.9l-32.7,5.8h-0.1c0.1,0.4,0.3,0.7,0.5,1.1  c0.5,1,1,1.9,1.8,2.6l0.3,0.4l0.2,0.2c0.4,0.4,0.9,0.8,1.3,1.1c0.7,0.5,1.4,0.9,2.1,1.2c0.2,0.1,0.4,0.2,0.6,0.2l0.3,0.1  c0.3,0.1,0.6,0.2,0.9,0.2c0,0,0.4,0.1,0.9,0.1c0.3,0,0.6,0.1,0.8,0.1h0.1c3.2,0,6.3-1.4,8.4-3.9c0.1-0.1,0.2-0.2,0.2-0.3l0.2-0.3  c0.6-0.8,1.2-1.6,1.6-2.5L172.3,101.8z M152.1,91l20.2-3.6l0-0.1c-0.9-2.7-4.6-6.8-10.8-5.9c-6.2,0.9-8.4,6.2-9.1,8.2  C152.2,90.1,152.1,90.5,152.1,91z"></path></svg>